<mxfile host="app.diagrams.net" modified="2024-05-12T18:22:17.495Z" agent="Mozilla/5.0 (Windows NT 10.0; Win64; x64) AppleWebKit/537.36 (KHTML, like Gecko) Chrome/124.0.0.0 Safari/537.36" etag="mrkbMA8QsQEb0W3nfhwR" version="24.4.0" type="google">
  <diagram name="Page-1" id="todf3vM1-aP4ZEwMvj4-">
    <mxGraphModel grid="1" page="1" gridSize="10" guides="1" tooltips="1" connect="1" arrows="1" fold="1" pageScale="1" pageWidth="850" pageHeight="1100" math="0" shadow="0">
      <root>
        <mxCell id="0" />
        <mxCell id="1" parent="0" />
        <mxCell id="LE_3zz__ZzsXoqtP4gQP-1" value="&lt;span style=&quot;font-size: 20px;&quot;&gt;&lt;b&gt;&lt;i&gt;ejercicio_03_FridayThe13th&lt;/i&gt;&lt;/b&gt;&lt;/span&gt;" style="text;html=1;align=center;verticalAlign=middle;resizable=0;points=[];autosize=1;strokeColor=none;fillColor=none;" vertex="1" parent="1">
          <mxGeometry x="1390" y="-1400" width="290" height="40" as="geometry" />
        </mxCell>
        <mxCell id="LE_3zz__ZzsXoqtP4gQP-47" style="edgeStyle=orthogonalEdgeStyle;rounded=0;orthogonalLoop=1;jettySize=auto;html=1;entryX=0.5;entryY=0;entryDx=0;entryDy=0;" edge="1" parent="1" source="LE_3zz__ZzsXoqtP4gQP-2" target="LE_3zz__ZzsXoqtP4gQP-36">
          <mxGeometry relative="1" as="geometry" />
        </mxCell>
        <mxCell id="LE_3zz__ZzsXoqtP4gQP-2" value="Biblioteca&#xa;" style="swimlane;fontStyle=0;align=center;verticalAlign=top;childLayout=stackLayout;horizontal=1;startSize=30;horizontalStack=0;resizeParent=1;resizeLast=0;collapsible=1;marginBottom=0;rounded=0;shadow=0;strokeWidth=1;fillColor=#fff2cc;strokeColor=#d6b656;" vertex="1" parent="1">
          <mxGeometry x="1160" y="-1880" width="280" height="140" as="geometry">
            <mxRectangle x="110" y="-20" width="160" height="26" as="alternateBounds" />
          </mxGeometry>
        </mxCell>
        <mxCell id="LE_3zz__ZzsXoqtP4gQP-4" value="" style="line;html=1;strokeWidth=1;align=left;verticalAlign=middle;spacingTop=-1;spacingLeft=3;spacingRight=3;rotatable=0;labelPosition=right;points=[];portConstraint=eastwest;" vertex="1" parent="LE_3zz__ZzsXoqtP4gQP-2">
          <mxGeometry y="30" width="280" height="8" as="geometry" />
        </mxCell>
        <mxCell id="LE_3zz__ZzsXoqtP4gQP-5" value="+ agregarSocio( socio : Socio )" style="text;align=left;verticalAlign=top;spacingLeft=4;spacingRight=4;overflow=hidden;rotatable=0;points=[[0,0.5],[1,0.5]];portConstraint=eastwest;rounded=0;shadow=0;html=0;" vertex="1" parent="LE_3zz__ZzsXoqtP4gQP-2">
          <mxGeometry y="38" width="280" height="22" as="geometry" />
        </mxCell>
        <mxCell id="LE_3zz__ZzsXoqtP4gQP-6" value="+ exportarSocios() : String" style="text;align=left;verticalAlign=top;spacingLeft=4;spacingRight=4;overflow=hidden;rotatable=0;points=[[0,0.5],[1,0.5]];portConstraint=eastwest;rounded=0;shadow=0;html=0;" vertex="1" parent="LE_3zz__ZzsXoqtP4gQP-2">
          <mxGeometry y="60" width="280" height="22" as="geometry" />
        </mxCell>
        <mxCell id="LE_3zz__ZzsXoqtP4gQP-10" value="+ getExporter() : VoorheesExporter" style="text;align=left;verticalAlign=top;spacingLeft=4;spacingRight=4;overflow=hidden;rotatable=0;points=[[0,0.5],[1,0.5]];portConstraint=eastwest;rounded=0;shadow=0;html=0;" vertex="1" parent="LE_3zz__ZzsXoqtP4gQP-2">
          <mxGeometry y="82" width="280" height="22" as="geometry" />
        </mxCell>
        <mxCell id="LE_3zz__ZzsXoqtP4gQP-11" value="+ setExporter( exporter : VoorheesExporter )" style="text;align=left;verticalAlign=top;spacingLeft=4;spacingRight=4;overflow=hidden;rotatable=0;points=[[0,0.5],[1,0.5]];portConstraint=eastwest;rounded=0;shadow=0;html=0;" vertex="1" parent="LE_3zz__ZzsXoqtP4gQP-2">
          <mxGeometry y="104" width="280" height="22" as="geometry" />
        </mxCell>
        <mxCell id="LE_3zz__ZzsXoqtP4gQP-12" value="SocioÂ &#xa;" style="swimlane;fontStyle=0;align=center;verticalAlign=top;childLayout=stackLayout;horizontal=1;startSize=30;horizontalStack=0;resizeParent=1;resizeLast=0;collapsible=1;marginBottom=0;rounded=0;shadow=0;strokeWidth=1;fillColor=#fff2cc;strokeColor=#d6b656;" vertex="1" parent="1">
          <mxGeometry x="980" y="-1680" width="280" height="260" as="geometry">
            <mxRectangle x="110" y="-20" width="160" height="26" as="alternateBounds" />
          </mxGeometry>
        </mxCell>
        <mxCell id="LE_3zz__ZzsXoqtP4gQP-14" value="- nombre : String" style="text;align=left;verticalAlign=top;spacingLeft=4;spacingRight=4;overflow=hidden;rotatable=0;points=[[0,0.5],[1,0.5]];portConstraint=eastwest;rounded=0;shadow=0;html=0;" vertex="1" parent="LE_3zz__ZzsXoqtP4gQP-12">
          <mxGeometry y="30" width="280" height="22" as="geometry" />
        </mxCell>
        <mxCell id="LE_3zz__ZzsXoqtP4gQP-18" value="- legajo : String" style="text;align=left;verticalAlign=top;spacingLeft=4;spacingRight=4;overflow=hidden;rotatable=0;points=[[0,0.5],[1,0.5]];portConstraint=eastwest;rounded=0;shadow=0;html=0;" vertex="1" parent="LE_3zz__ZzsXoqtP4gQP-12">
          <mxGeometry y="52" width="280" height="22" as="geometry" />
        </mxCell>
        <mxCell id="LE_3zz__ZzsXoqtP4gQP-19" value="- email : String" style="text;align=left;verticalAlign=top;spacingLeft=4;spacingRight=4;overflow=hidden;rotatable=0;points=[[0,0.5],[1,0.5]];portConstraint=eastwest;rounded=0;shadow=0;html=0;" vertex="1" parent="LE_3zz__ZzsXoqtP4gQP-12">
          <mxGeometry y="74" width="280" height="22" as="geometry" />
        </mxCell>
        <mxCell id="LE_3zz__ZzsXoqtP4gQP-13" value="" style="line;html=1;strokeWidth=1;align=left;verticalAlign=middle;spacingTop=-1;spacingLeft=3;spacingRight=3;rotatable=0;labelPosition=right;points=[];portConstraint=eastwest;" vertex="1" parent="LE_3zz__ZzsXoqtP4gQP-12">
          <mxGeometry y="96" width="280" height="8" as="geometry" />
        </mxCell>
        <mxCell id="LE_3zz__ZzsXoqtP4gQP-15" value="+ getNombre() : String" style="text;align=left;verticalAlign=top;spacingLeft=4;spacingRight=4;overflow=hidden;rotatable=0;points=[[0,0.5],[1,0.5]];portConstraint=eastwest;rounded=0;shadow=0;html=0;" vertex="1" parent="LE_3zz__ZzsXoqtP4gQP-12">
          <mxGeometry y="104" width="280" height="26" as="geometry" />
        </mxCell>
        <mxCell id="LE_3zz__ZzsXoqtP4gQP-16" value="+ setNombre( nombre : String )" style="text;align=left;verticalAlign=top;spacingLeft=4;spacingRight=4;overflow=hidden;rotatable=0;points=[[0,0.5],[1,0.5]];portConstraint=eastwest;rounded=0;shadow=0;html=0;" vertex="1" parent="LE_3zz__ZzsXoqtP4gQP-12">
          <mxGeometry y="130" width="280" height="22" as="geometry" />
        </mxCell>
        <mxCell id="LE_3zz__ZzsXoqtP4gQP-17" value="+ getEmail() : String" style="text;align=left;verticalAlign=top;spacingLeft=4;spacingRight=4;overflow=hidden;rotatable=0;points=[[0,0.5],[1,0.5]];portConstraint=eastwest;rounded=0;shadow=0;html=0;" vertex="1" parent="LE_3zz__ZzsXoqtP4gQP-12">
          <mxGeometry y="152" width="280" height="22" as="geometry" />
        </mxCell>
        <mxCell id="LE_3zz__ZzsXoqtP4gQP-20" value="+ setEmail( nombre : String )" style="text;align=left;verticalAlign=top;spacingLeft=4;spacingRight=4;overflow=hidden;rotatable=0;points=[[0,0.5],[1,0.5]];portConstraint=eastwest;rounded=0;shadow=0;html=0;" vertex="1" parent="LE_3zz__ZzsXoqtP4gQP-12">
          <mxGeometry y="174" width="280" height="22" as="geometry" />
        </mxCell>
        <mxCell id="LE_3zz__ZzsXoqtP4gQP-21" value="+ getLegajo() : String" style="text;align=left;verticalAlign=top;spacingLeft=4;spacingRight=4;overflow=hidden;rotatable=0;points=[[0,0.5],[1,0.5]];portConstraint=eastwest;rounded=0;shadow=0;html=0;" vertex="1" parent="LE_3zz__ZzsXoqtP4gQP-12">
          <mxGeometry y="196" width="280" height="22" as="geometry" />
        </mxCell>
        <mxCell id="LE_3zz__ZzsXoqtP4gQP-22" value="+ setLegajo( nombre : String )" style="text;align=left;verticalAlign=top;spacingLeft=4;spacingRight=4;overflow=hidden;rotatable=0;points=[[0,0.5],[1,0.5]];portConstraint=eastwest;rounded=0;shadow=0;html=0;" vertex="1" parent="LE_3zz__ZzsXoqtP4gQP-12">
          <mxGeometry y="218" width="280" height="22" as="geometry" />
        </mxCell>
        <mxCell id="LE_3zz__ZzsXoqtP4gQP-36" value="VoorheesExporter&#xa;" style="swimlane;fontStyle=0;align=center;verticalAlign=top;childLayout=stackLayout;horizontal=1;startSize=30;horizontalStack=0;resizeParent=1;resizeLast=0;collapsible=1;marginBottom=0;rounded=0;shadow=0;strokeWidth=1;fillColor=#fff2cc;strokeColor=#d6b656;" vertex="1" parent="1">
          <mxGeometry x="1340" y="-1680" width="280" height="100" as="geometry">
            <mxRectangle x="110" y="-20" width="160" height="26" as="alternateBounds" />
          </mxGeometry>
        </mxCell>
        <mxCell id="LE_3zz__ZzsXoqtP4gQP-40" value="" style="line;html=1;strokeWidth=1;align=left;verticalAlign=middle;spacingTop=-1;spacingLeft=3;spacingRight=3;rotatable=0;labelPosition=right;points=[];portConstraint=eastwest;" vertex="1" parent="LE_3zz__ZzsXoqtP4gQP-36">
          <mxGeometry y="30" width="280" height="8" as="geometry" />
        </mxCell>
        <mxCell id="LE_3zz__ZzsXoqtP4gQP-41" value="- exportar( socio : Socio ) : String" style="text;align=left;verticalAlign=top;spacingLeft=4;spacingRight=4;overflow=hidden;rotatable=0;points=[[0,0.5],[1,0.5]];portConstraint=eastwest;rounded=0;shadow=0;html=0;" vertex="1" parent="LE_3zz__ZzsXoqtP4gQP-36">
          <mxGeometry y="38" width="280" height="26" as="geometry" />
        </mxCell>
        <mxCell id="LE_3zz__ZzsXoqtP4gQP-42" value="+ exportar( socios : Socios[*] ) : String" style="text;align=left;verticalAlign=top;spacingLeft=4;spacingRight=4;overflow=hidden;rotatable=0;points=[[0,0.5],[1,0.5]];portConstraint=eastwest;rounded=0;shadow=0;html=0;" vertex="1" parent="LE_3zz__ZzsXoqtP4gQP-36">
          <mxGeometry y="64" width="280" height="22" as="geometry" />
        </mxCell>
        <mxCell id="LE_3zz__ZzsXoqtP4gQP-48" style="edgeStyle=orthogonalEdgeStyle;rounded=0;orthogonalLoop=1;jettySize=auto;html=1;" edge="1" parent="1">
          <mxGeometry relative="1" as="geometry">
            <mxPoint x="1300" y="-1740" as="sourcePoint" />
            <mxPoint x="1090" y="-1680" as="targetPoint" />
            <Array as="points">
              <mxPoint x="1300" y="-1710" />
              <mxPoint x="1090" y="-1710" />
            </Array>
          </mxGeometry>
        </mxCell>
        <mxCell id="LE_3zz__ZzsXoqtP4gQP-49" value="&lt;span style=&quot;font-size: 20px;&quot;&gt;&lt;b&gt;&lt;i style=&quot;font-size: 1px;&quot;&gt;.&lt;/i&gt;&lt;/b&gt;&lt;/span&gt;" style="text;html=1;align=center;verticalAlign=middle;resizable=0;points=[];autosize=1;strokeColor=none;fillColor=none;" vertex="1" parent="1">
          <mxGeometry x="920" y="-1920" width="20" height="40" as="geometry" />
        </mxCell>
      </root>
    </mxGraphModel>
  </diagram>
</mxfile>
